<svg viewBox="0 0 24 24" fill="currentColor" xmlns="http://www.w3.org/2000/svg">
  <path d="M12 .5C5.65.5.5 5.65.5 12c0 5.08 3.29 9.39 7.86 10.91.57.11.78-.25.78-.55 0-.27-.01-1.16-.02-2.1-3.2.7-3.88-1.38-3.88-1.38-.52-1.32-1.27-1.67-1.27-1.67-1.04-.71.08-.7.08-.7 1.15.08 1.76 1.18 1.76 1.18 1.02 1.75 2.68 1.25 3.33.96.1-.75.4-1.25.72-1.54-2.56-.29-5.26-1.29-5.26-5.75 0-1.27.45-2.31 1.18-3.12-.12-.29-.51-1.45.11-3.03 0 0 .96-.31 3.15 1.18.92-.26 1.9-.39 2.88-.39.98 0 1.96.13 2.88.39 2.19-1.49 3.15-1.18 3.15-1.18.62 1.58.23 2.74.11 3.03.74.81 1.18 1.85 1.18 3.12 0 4.47-2.71 5.46-5.29 5.74.41.35.78 1.04.78 2.1 0 1.52-.01 2.75-.01 3.12 0 .3.2.66.79.55C20.71 21.39 24 17.08 24 12 24 5.65 18.35.5 12 .5z"/>
</svg>
